<mxfile host="Electron" modified="2024-04-16T09:17:42.831Z" agent="Mozilla/5.0 (X11; Linux x86_64) AppleWebKit/537.36 (KHTML, like Gecko) draw.io/24.2.5 Chrome/120.0.6099.109 Electron/28.1.0 Safari/537.36" etag="BZnlwyKL6B4GXTXEBOyY" version="24.2.5" type="device">
  <diagram id="R2lEEEUBdFMjLlhIrx00" name="Page-1">
    <mxGraphModel dx="1595" dy="865" grid="1" gridSize="10" guides="1" tooltips="1" connect="1" arrows="1" fold="1" page="1" pageScale="1" pageWidth="1000" pageHeight="700" math="0" shadow="0" extFonts="Permanent Marker^https://fonts.googleapis.com/css?family=Permanent+Marker">
      <root>
        <mxCell id="0" />
        <mxCell id="1" parent="0" />
        <mxCell id="bLK67qYPY1fCgwlhXt4D-2" value="Hosted" style="shape=rhombus;perimeter=rhombusPerimeter;whiteSpace=wrap;html=1;align=center;fontSize=11;" parent="1" vertex="1">
          <mxGeometry x="300" y="330" width="80" height="40" as="geometry" />
        </mxCell>
        <mxCell id="bLK67qYPY1fCgwlhXt4D-67" value="Register" style="shape=rhombus;perimeter=rhombusPerimeter;whiteSpace=wrap;html=1;align=center;fontSize=11;" parent="1" vertex="1">
          <mxGeometry x="460" y="210" width="80" height="40" as="geometry" />
        </mxCell>
        <mxCell id="bLK67qYPY1fCgwlhXt4D-68" value="" style="endArrow=none;html=1;rounded=0;fontSize=11;exitX=0.5;exitY=1;exitDx=0;exitDy=0;entryX=0.5;entryY=0;entryDx=0;entryDy=0;" parent="1" source="bLK67qYPY1fCgwlhXt4D-67" target="yTcXm12r717XAI1YzuX1-4" edge="1">
          <mxGeometry relative="1" as="geometry">
            <mxPoint x="620" y="559" as="sourcePoint" />
            <mxPoint x="390" y="320" as="targetPoint" />
          </mxGeometry>
        </mxCell>
        <mxCell id="bLK67qYPY1fCgwlhXt4D-69" value="" style="endArrow=none;html=1;rounded=0;fontSize=11;entryX=0.5;entryY=0;entryDx=0;entryDy=0;exitX=0.5;exitY=1;exitDx=0;exitDy=0;" parent="1" source="yTcXm12r717XAI1YzuX1-2" target="bLK67qYPY1fCgwlhXt4D-67" edge="1">
          <mxGeometry relative="1" as="geometry">
            <mxPoint x="390" y="359" as="sourcePoint" />
            <mxPoint x="470" y="359" as="targetPoint" />
          </mxGeometry>
        </mxCell>
        <mxCell id="bLK67qYPY1fCgwlhXt4D-70" value="Carries" style="shape=rhombus;perimeter=rhombusPerimeter;whiteSpace=wrap;html=1;align=center;fontSize=11;" parent="1" vertex="1">
          <mxGeometry x="620" y="330" width="80" height="40" as="geometry" />
        </mxCell>
        <mxCell id="bLK67qYPY1fCgwlhXt4D-21" value="Crew" style="whiteSpace=wrap;html=1;align=center;fontSize=12;fontStyle=1" parent="1" vertex="1">
          <mxGeometry x="140" y="90" width="80" height="40" as="geometry" />
        </mxCell>
        <mxCell id="bLK67qYPY1fCgwlhXt4D-22" value="nationality" style="ellipse;whiteSpace=wrap;html=1;align=center;fontStyle=0;fontSize=11;" parent="1" vertex="1">
          <mxGeometry x="40" y="120" width="80" height="20" as="geometry" />
        </mxCell>
        <mxCell id="bLK67qYPY1fCgwlhXt4D-23" value="name" style="ellipse;whiteSpace=wrap;html=1;align=center;fontStyle=4;fontSize=11;" parent="1" vertex="1">
          <mxGeometry x="40" y="40" width="80" height="20" as="geometry" />
        </mxCell>
        <mxCell id="bLK67qYPY1fCgwlhXt4D-24" value="surname" style="ellipse;whiteSpace=wrap;html=1;align=center;fontStyle=0;fontSize=11;" parent="1" vertex="1">
          <mxGeometry x="40" y="80" width="80" height="20" as="geometry" />
        </mxCell>
        <mxCell id="bLK67qYPY1fCgwlhXt4D-25" value="" style="endArrow=none;html=1;rounded=0;fontSize=11;exitX=0;exitY=0.75;exitDx=0;exitDy=0;entryX=1;entryY=0.5;entryDx=0;entryDy=0;" parent="1" source="bLK67qYPY1fCgwlhXt4D-21" target="bLK67qYPY1fCgwlhXt4D-22" edge="1">
          <mxGeometry relative="1" as="geometry">
            <mxPoint x="290" y="269" as="sourcePoint" />
            <mxPoint x="140" y="140" as="targetPoint" />
          </mxGeometry>
        </mxCell>
        <mxCell id="bLK67qYPY1fCgwlhXt4D-26" value="" style="endArrow=none;html=1;rounded=0;fontSize=11;entryX=1;entryY=0.5;entryDx=0;entryDy=0;exitX=0;exitY=0.25;exitDx=0;exitDy=0;" parent="1" source="bLK67qYPY1fCgwlhXt4D-21" target="bLK67qYPY1fCgwlhXt4D-24" edge="1">
          <mxGeometry relative="1" as="geometry">
            <mxPoint x="150" y="69" as="sourcePoint" />
            <mxPoint x="330" y="-1" as="targetPoint" />
          </mxGeometry>
        </mxCell>
        <mxCell id="bLK67qYPY1fCgwlhXt4D-27" value="" style="endArrow=none;html=1;rounded=0;fontSize=11;entryX=1;entryY=0.5;entryDx=0;entryDy=0;exitX=0;exitY=0;exitDx=0;exitDy=0;" parent="1" source="bLK67qYPY1fCgwlhXt4D-21" target="bLK67qYPY1fCgwlhXt4D-23" edge="1">
          <mxGeometry relative="1" as="geometry">
            <mxPoint x="290" y="119" as="sourcePoint" />
            <mxPoint x="330" y="59" as="targetPoint" />
          </mxGeometry>
        </mxCell>
        <mxCell id="bLK67qYPY1fCgwlhXt4D-11" value="datetime" style="ellipse;whiteSpace=wrap;html=1;align=center;fontStyle=4;fontSize=11;" parent="1" vertex="1">
          <mxGeometry x="360" y="280" width="80" height="20" as="geometry" />
        </mxCell>
        <mxCell id="bLK67qYPY1fCgwlhXt4D-12" value="name" style="ellipse;whiteSpace=wrap;html=1;align=center;fontStyle=0;fontSize=11;" parent="1" vertex="1">
          <mxGeometry x="360" y="400" width="80" height="20" as="geometry" />
        </mxCell>
        <mxCell id="bLK67qYPY1fCgwlhXt4D-14" value="" style="endArrow=none;html=1;rounded=0;fontSize=11;entryX=1;entryY=1;entryDx=0;entryDy=0;exitX=0;exitY=0;exitDx=0;exitDy=0;" parent="1" source="yTcXm12r717XAI1YzuX1-4" target="bLK67qYPY1fCgwlhXt4D-11" edge="1">
          <mxGeometry relative="1" as="geometry">
            <mxPoint x="480" y="300" as="sourcePoint" />
            <mxPoint x="630" y="489" as="targetPoint" />
          </mxGeometry>
        </mxCell>
        <mxCell id="bLK67qYPY1fCgwlhXt4D-16" value="" style="endArrow=none;html=1;rounded=0;fontSize=11;exitX=0;exitY=1;exitDx=0;exitDy=0;entryX=1;entryY=0;entryDx=0;entryDy=0;" parent="1" source="yTcXm12r717XAI1YzuX1-4" target="bLK67qYPY1fCgwlhXt4D-12" edge="1">
          <mxGeometry relative="1" as="geometry">
            <mxPoint x="520" y="300" as="sourcePoint" />
            <mxPoint x="400" y="390" as="targetPoint" />
          </mxGeometry>
        </mxCell>
        <mxCell id="bLK67qYPY1fCgwlhXt4D-35" value="Payload" style="whiteSpace=wrap;html=1;align=center;fontSize=12;fontStyle=1" parent="1" vertex="1">
          <mxGeometry x="780" y="330" width="80" height="40" as="geometry" />
        </mxCell>
        <mxCell id="bLK67qYPY1fCgwlhXt4D-36" value="id" style="ellipse;whiteSpace=wrap;html=1;align=center;fontStyle=4;fontSize=11;" parent="1" vertex="1">
          <mxGeometry x="880" y="320" width="80" height="20" as="geometry" />
        </mxCell>
        <mxCell id="bLK67qYPY1fCgwlhXt4D-37" value="weight" style="ellipse;whiteSpace=wrap;html=1;align=center;fontStyle=0;fontSize=11;" parent="1" vertex="1">
          <mxGeometry x="880" y="360" width="80" height="20" as="geometry" />
        </mxCell>
        <mxCell id="bLK67qYPY1fCgwlhXt4D-38" value="" style="endArrow=none;html=1;rounded=0;fontSize=11;entryX=0;entryY=0.5;entryDx=0;entryDy=0;exitX=1;exitY=0.25;exitDx=0;exitDy=0;" parent="1" source="bLK67qYPY1fCgwlhXt4D-35" target="bLK67qYPY1fCgwlhXt4D-36" edge="1">
          <mxGeometry relative="1" as="geometry">
            <mxPoint x="620" y="409" as="sourcePoint" />
            <mxPoint x="780" y="409" as="targetPoint" />
          </mxGeometry>
        </mxCell>
        <mxCell id="bLK67qYPY1fCgwlhXt4D-39" value="" style="endArrow=none;html=1;rounded=0;fontSize=11;entryX=0;entryY=0.5;entryDx=0;entryDy=0;exitX=1;exitY=0.75;exitDx=0;exitDy=0;" parent="1" source="bLK67qYPY1fCgwlhXt4D-35" target="bLK67qYPY1fCgwlhXt4D-37" edge="1">
          <mxGeometry relative="1" as="geometry">
            <mxPoint x="910" y="269" as="sourcePoint" />
            <mxPoint x="950" y="239" as="targetPoint" />
          </mxGeometry>
        </mxCell>
        <mxCell id="bLK67qYPY1fCgwlhXt4D-41" value="Rocket" style="whiteSpace=wrap;html=1;align=center;fontSize=12;fontStyle=1" parent="1" vertex="1">
          <mxGeometry x="460" y="570" width="80" height="40" as="geometry" />
        </mxCell>
        <mxCell id="bLK67qYPY1fCgwlhXt4D-42" value="type" style="ellipse;whiteSpace=wrap;html=1;align=center;fontStyle=0;fontSize=11;" parent="1" vertex="1">
          <mxGeometry x="360" y="560" width="80" height="20" as="geometry" />
        </mxCell>
        <mxCell id="bLK67qYPY1fCgwlhXt4D-43" value="max_thrust" style="ellipse;whiteSpace=wrap;html=1;align=center;fontStyle=0;fontSize=11;" parent="1" vertex="1">
          <mxGeometry x="560" y="560" width="80" height="20" as="geometry" />
        </mxCell>
        <mxCell id="bLK67qYPY1fCgwlhXt4D-44" value="name" style="ellipse;whiteSpace=wrap;html=1;align=center;fontStyle=0;fontSize=11;" parent="1" vertex="1">
          <mxGeometry x="360" y="600" width="80" height="20" as="geometry" />
        </mxCell>
        <mxCell id="bLK67qYPY1fCgwlhXt4D-45" value="" style="endArrow=none;html=1;rounded=0;fontSize=11;entryX=1;entryY=0.5;entryDx=0;entryDy=0;exitX=0;exitY=0.25;exitDx=0;exitDy=0;" parent="1" source="bLK67qYPY1fCgwlhXt4D-41" target="bLK67qYPY1fCgwlhXt4D-42" edge="1">
          <mxGeometry relative="1" as="geometry">
            <mxPoint x="580" y="969" as="sourcePoint" />
            <mxPoint x="620" y="949" as="targetPoint" />
          </mxGeometry>
        </mxCell>
        <mxCell id="bLK67qYPY1fCgwlhXt4D-46" value="" style="endArrow=none;html=1;rounded=0;fontSize=11;entryX=1;entryY=0.5;entryDx=0;entryDy=0;exitX=0;exitY=0.75;exitDx=0;exitDy=0;" parent="1" source="bLK67qYPY1fCgwlhXt4D-41" target="bLK67qYPY1fCgwlhXt4D-44" edge="1">
          <mxGeometry relative="1" as="geometry">
            <mxPoint x="490" y="609" as="sourcePoint" />
            <mxPoint x="620" y="699" as="targetPoint" />
          </mxGeometry>
        </mxCell>
        <mxCell id="bLK67qYPY1fCgwlhXt4D-47" value="" style="endArrow=none;html=1;rounded=0;fontSize=11;entryX=0;entryY=0.5;entryDx=0;entryDy=0;exitX=1;exitY=0.25;exitDx=0;exitDy=0;" parent="1" source="bLK67qYPY1fCgwlhXt4D-41" target="bLK67qYPY1fCgwlhXt4D-43" edge="1">
          <mxGeometry relative="1" as="geometry">
            <mxPoint x="580" y="819" as="sourcePoint" />
            <mxPoint x="620" y="759" as="targetPoint" />
          </mxGeometry>
        </mxCell>
        <mxCell id="bLK67qYPY1fCgwlhXt4D-48" value="is_reusable" style="ellipse;whiteSpace=wrap;html=1;align=center;fontStyle=0;fontSize=11;" parent="1" vertex="1">
          <mxGeometry x="560" y="600" width="80" height="20" as="geometry" />
        </mxCell>
        <mxCell id="bLK67qYPY1fCgwlhXt4D-49" value="" style="endArrow=none;html=1;rounded=0;fontSize=11;entryX=0;entryY=0.5;entryDx=0;entryDy=0;exitX=1;exitY=0.75;exitDx=0;exitDy=0;" parent="1" source="bLK67qYPY1fCgwlhXt4D-41" target="bLK67qYPY1fCgwlhXt4D-48" edge="1">
          <mxGeometry relative="1" as="geometry">
            <mxPoint x="550" y="799" as="sourcePoint" />
            <mxPoint x="620" y="759" as="targetPoint" />
          </mxGeometry>
        </mxCell>
        <mxCell id="bLK67qYPY1fCgwlhXt4D-50" value="Manufacturer" style="whiteSpace=wrap;html=1;align=center;fontSize=12;fontStyle=1" parent="1" vertex="1">
          <mxGeometry x="760" y="570" width="100" height="40" as="geometry" />
        </mxCell>
        <mxCell id="bLK67qYPY1fCgwlhXt4D-51" value="id" style="ellipse;whiteSpace=wrap;html=1;align=center;fontStyle=4;fontSize=11;" parent="1" vertex="1">
          <mxGeometry x="880" y="520" width="80" height="20" as="geometry" />
        </mxCell>
        <mxCell id="bLK67qYPY1fCgwlhXt4D-52" value="phone" style="ellipse;whiteSpace=wrap;html=1;align=center;fontStyle=0;fontSize=11;" parent="1" vertex="1">
          <mxGeometry x="880" y="640" width="80" height="20" as="geometry" />
        </mxCell>
        <mxCell id="bLK67qYPY1fCgwlhXt4D-53" value="name" style="ellipse;whiteSpace=wrap;html=1;align=center;fontStyle=0;fontSize=11;" parent="1" vertex="1">
          <mxGeometry x="880" y="560" width="80" height="20" as="geometry" />
        </mxCell>
        <mxCell id="bLK67qYPY1fCgwlhXt4D-54" value="" style="endArrow=none;html=1;rounded=0;fontSize=11;entryX=0;entryY=1;entryDx=0;entryDy=0;exitX=1;exitY=0;exitDx=0;exitDy=0;" parent="1" source="bLK67qYPY1fCgwlhXt4D-50" target="bLK67qYPY1fCgwlhXt4D-51" edge="1">
          <mxGeometry relative="1" as="geometry">
            <mxPoint x="590" y="1069" as="sourcePoint" />
            <mxPoint x="630" y="1049" as="targetPoint" />
          </mxGeometry>
        </mxCell>
        <mxCell id="bLK67qYPY1fCgwlhXt4D-55" value="" style="endArrow=none;html=1;rounded=0;fontSize=11;entryX=0;entryY=0.5;entryDx=0;entryDy=0;exitX=1;exitY=0.25;exitDx=0;exitDy=0;" parent="1" source="bLK67qYPY1fCgwlhXt4D-50" target="bLK67qYPY1fCgwlhXt4D-53" edge="1">
          <mxGeometry relative="1" as="geometry">
            <mxPoint x="590" y="909" as="sourcePoint" />
            <mxPoint x="630" y="799" as="targetPoint" />
          </mxGeometry>
        </mxCell>
        <mxCell id="bLK67qYPY1fCgwlhXt4D-56" value="" style="endArrow=none;html=1;rounded=0;fontSize=11;entryX=0;entryY=0;entryDx=0;entryDy=0;exitX=1;exitY=1;exitDx=0;exitDy=0;" parent="1" source="bLK67qYPY1fCgwlhXt4D-50" target="bLK67qYPY1fCgwlhXt4D-52" edge="1">
          <mxGeometry relative="1" as="geometry">
            <mxPoint x="590" y="919" as="sourcePoint" />
            <mxPoint x="630" y="859" as="targetPoint" />
          </mxGeometry>
        </mxCell>
        <mxCell id="bLK67qYPY1fCgwlhXt4D-57" value="address" style="ellipse;whiteSpace=wrap;html=1;align=center;fontStyle=0;fontSize=11;" parent="1" vertex="1">
          <mxGeometry x="880" y="600" width="80" height="20" as="geometry" />
        </mxCell>
        <mxCell id="bLK67qYPY1fCgwlhXt4D-58" value="" style="endArrow=none;html=1;rounded=0;fontSize=11;entryX=0;entryY=0.5;entryDx=0;entryDy=0;exitX=1;exitY=0.75;exitDx=0;exitDy=0;" parent="1" source="bLK67qYPY1fCgwlhXt4D-50" target="bLK67qYPY1fCgwlhXt4D-57" edge="1">
          <mxGeometry relative="1" as="geometry">
            <mxPoint x="560" y="899" as="sourcePoint" />
            <mxPoint x="630" y="859" as="targetPoint" />
          </mxGeometry>
        </mxCell>
        <mxCell id="bLK67qYPY1fCgwlhXt4D-79" value="Performed" style="shape=rhombus;perimeter=rhombusPerimeter;whiteSpace=wrap;html=1;align=center;fontSize=11;" parent="1" vertex="1">
          <mxGeometry x="460" y="450" width="80" height="40" as="geometry" />
        </mxCell>
        <mxCell id="bLK67qYPY1fCgwlhXt4D-4" value="name" style="ellipse;whiteSpace=wrap;html=1;align=center;fontStyle=4;fontSize=11;" parent="1" vertex="1">
          <mxGeometry x="40" y="320" width="80" height="20" as="geometry" />
        </mxCell>
        <mxCell id="bLK67qYPY1fCgwlhXt4D-1" value="Launchpad" style="whiteSpace=wrap;html=1;align=center;fontSize=12;fontStyle=1" parent="1" vertex="1">
          <mxGeometry x="140" y="330" width="80" height="40" as="geometry" />
        </mxCell>
        <mxCell id="bLK67qYPY1fCgwlhXt4D-5" value="location" style="ellipse;whiteSpace=wrap;html=1;align=center;fontStyle=0;fontSize=11;" parent="1" vertex="1">
          <mxGeometry x="40" y="360" width="80" height="20" as="geometry" />
        </mxCell>
        <mxCell id="bLK67qYPY1fCgwlhXt4D-6" value="" style="endArrow=none;html=1;rounded=0;fontSize=11;entryX=1;entryY=0.5;entryDx=0;entryDy=0;exitX=0;exitY=0.25;exitDx=0;exitDy=0;" parent="1" source="bLK67qYPY1fCgwlhXt4D-1" target="bLK67qYPY1fCgwlhXt4D-4" edge="1">
          <mxGeometry relative="1" as="geometry">
            <mxPoint x="170" y="369" as="sourcePoint" />
            <mxPoint x="540" y="849" as="targetPoint" />
          </mxGeometry>
        </mxCell>
        <mxCell id="bLK67qYPY1fCgwlhXt4D-7" value="" style="endArrow=none;html=1;rounded=0;fontSize=11;entryX=1;entryY=0.5;entryDx=0;entryDy=0;exitX=0;exitY=0.75;exitDx=0;exitDy=0;" parent="1" source="bLK67qYPY1fCgwlhXt4D-1" target="bLK67qYPY1fCgwlhXt4D-5" edge="1">
          <mxGeometry relative="1" as="geometry">
            <mxPoint x="670" y="709" as="sourcePoint" />
            <mxPoint x="710" y="679" as="targetPoint" />
          </mxGeometry>
        </mxCell>
        <mxCell id="0fySJKZ7ysAFsFfrDqM2-2" value="Made" style="shape=rhombus;double=1;perimeter=rhombusPerimeter;whiteSpace=wrap;html=1;align=center;fontSize=11;" parent="1" vertex="1">
          <mxGeometry x="620" y="450" width="80" height="40" as="geometry" />
        </mxCell>
        <mxCell id="0fySJKZ7ysAFsFfrDqM2-8" value="serial_no" style="ellipse;whiteSpace=wrap;html=1;align=center;fontStyle=4;fontSize=11;" parent="1" vertex="1">
          <mxGeometry x="360" y="520" width="80" height="20" as="geometry" />
        </mxCell>
        <mxCell id="0fySJKZ7ysAFsFfrDqM2-9" value="" style="endArrow=none;html=1;rounded=0;fontSize=11;entryX=1;entryY=1;entryDx=0;entryDy=0;exitX=0;exitY=0;exitDx=0;exitDy=0;" parent="1" source="bLK67qYPY1fCgwlhXt4D-41" target="0fySJKZ7ysAFsFfrDqM2-8" edge="1">
          <mxGeometry relative="1" as="geometry">
            <mxPoint x="470" y="620" as="sourcePoint" />
            <mxPoint x="430" y="640" as="targetPoint" />
          </mxGeometry>
        </mxCell>
        <mxCell id="yTcXm12r717XAI1YzuX1-2" value="Mission" style="shape=ext;margin=3;double=1;whiteSpace=wrap;html=1;align=center;fontSize=12;fontStyle=1" parent="1" vertex="1">
          <mxGeometry x="460" y="90" width="80" height="40" as="geometry" />
        </mxCell>
        <mxCell id="yTcXm12r717XAI1YzuX1-4" value="Launch" style="whiteSpace=wrap;html=1;align=center;fontSize=12;fontStyle=1" parent="1" vertex="1">
          <mxGeometry x="460" y="330" width="80" height="40" as="geometry" />
        </mxCell>
        <mxCell id="yTcXm12r717XAI1YzuX1-5" value="Register" style="shape=rhombus;perimeter=rhombusPerimeter;whiteSpace=wrap;html=1;align=center;fontSize=11;" parent="1" vertex="1">
          <mxGeometry x="300" y="90" width="80" height="40" as="geometry" />
        </mxCell>
        <mxCell id="yTcXm12r717XAI1YzuX1-6" value="" style="endArrow=none;html=1;rounded=0;fontSize=11;entryX=0;entryY=0.5;entryDx=0;entryDy=0;exitX=1;exitY=0.5;exitDx=0;exitDy=0;" parent="1" source="bLK67qYPY1fCgwlhXt4D-21" target="yTcXm12r717XAI1YzuX1-5" edge="1">
          <mxGeometry relative="1" as="geometry">
            <mxPoint x="510" y="140" as="sourcePoint" />
            <mxPoint x="510" y="180" as="targetPoint" />
          </mxGeometry>
        </mxCell>
        <mxCell id="yTcXm12r717XAI1YzuX1-7" value="" style="endArrow=none;html=1;rounded=0;fontSize=11;entryX=1;entryY=0.5;entryDx=0;entryDy=0;exitX=0;exitY=0.5;exitDx=0;exitDy=0;" parent="1" source="yTcXm12r717XAI1YzuX1-2" target="yTcXm12r717XAI1YzuX1-5" edge="1">
          <mxGeometry relative="1" as="geometry">
            <mxPoint x="230" y="120" as="sourcePoint" />
            <mxPoint x="310" y="120" as="targetPoint" />
          </mxGeometry>
        </mxCell>
        <mxCell id="NJZxslIq2GOs9MZ_2xDQ-1" value="1" style="rounded=0;orthogonalLoop=1;jettySize=auto;html=1;exitX=0;exitY=0.5;exitDx=0;exitDy=0;entryX=1;entryY=0.5;entryDx=0;entryDy=0;fontSize=12;" parent="1" source="bLK67qYPY1fCgwlhXt4D-2" target="bLK67qYPY1fCgwlhXt4D-1" edge="1">
          <mxGeometry x="0.5" y="-10" relative="1" as="geometry">
            <mxPoint x="580" y="300" as="sourcePoint" />
            <mxPoint x="500" y="300" as="targetPoint" />
            <mxPoint as="offset" />
          </mxGeometry>
        </mxCell>
        <mxCell id="NJZxslIq2GOs9MZ_2xDQ-3" value="1" style="rounded=0;orthogonalLoop=1;jettySize=auto;html=1;exitX=1;exitY=0.5;exitDx=0;exitDy=0;entryX=0;entryY=0.5;entryDx=0;entryDy=0;fontSize=12;" parent="1" source="bLK67qYPY1fCgwlhXt4D-70" target="bLK67qYPY1fCgwlhXt4D-35" edge="1">
          <mxGeometry x="0.5" y="10" relative="1" as="geometry">
            <mxPoint x="320" y="370" as="sourcePoint" />
            <mxPoint x="240" y="370" as="targetPoint" />
            <mxPoint as="offset" />
          </mxGeometry>
        </mxCell>
        <mxCell id="NJZxslIq2GOs9MZ_2xDQ-4" value="1" style="rounded=0;orthogonalLoop=1;jettySize=auto;html=1;exitX=0.5;exitY=1;exitDx=0;exitDy=0;entryX=0.5;entryY=0;entryDx=0;entryDy=0;fontSize=12;" parent="1" source="bLK67qYPY1fCgwlhXt4D-79" target="bLK67qYPY1fCgwlhXt4D-41" edge="1">
          <mxGeometry x="0.5" y="-10" relative="1" as="geometry">
            <mxPoint x="330" y="380" as="sourcePoint" />
            <mxPoint x="250" y="380" as="targetPoint" />
            <mxPoint as="offset" />
          </mxGeometry>
        </mxCell>
        <mxCell id="NJZxslIq2GOs9MZ_2xDQ-5" value="1" style="rounded=0;orthogonalLoop=1;jettySize=auto;html=1;exitX=1;exitY=1;exitDx=0;exitDy=0;entryX=0.5;entryY=0;entryDx=0;entryDy=0;fontSize=12;" parent="1" source="0fySJKZ7ysAFsFfrDqM2-2" target="bLK67qYPY1fCgwlhXt4D-50" edge="1">
          <mxGeometry x="0.5" y="-10" relative="1" as="geometry">
            <mxPoint x="340" y="390" as="sourcePoint" />
            <mxPoint x="260" y="390" as="targetPoint" />
            <mxPoint as="offset" />
          </mxGeometry>
        </mxCell>
        <mxCell id="MomumSvb6nAdSk_d3Thd-1" value="" style="shape=link;html=1;rounded=0;entryX=0.25;entryY=1;entryDx=0;entryDy=0;exitX=1;exitY=0;exitDx=0;exitDy=0;" parent="1" source="0fySJKZ7ysAFsFfrDqM2-2" target="bLK67qYPY1fCgwlhXt4D-35" edge="1">
          <mxGeometry relative="1" as="geometry">
            <mxPoint x="440" y="340" as="sourcePoint" />
            <mxPoint x="600" y="340" as="targetPoint" />
          </mxGeometry>
        </mxCell>
        <mxCell id="MomumSvb6nAdSk_d3Thd-3" value="1" style="edgeLabel;html=1;align=center;verticalAlign=middle;resizable=0;points=[];fontSize=12;" parent="MomumSvb6nAdSk_d3Thd-1" vertex="1" connectable="0">
          <mxGeometry x="0.4311" y="2" relative="1" as="geometry">
            <mxPoint x="5" y="-14" as="offset" />
          </mxGeometry>
        </mxCell>
        <mxCell id="MomumSvb6nAdSk_d3Thd-6" value="" style="shape=link;html=1;rounded=0;exitX=0;exitY=1;exitDx=0;exitDy=0;entryX=0.75;entryY=0;entryDx=0;entryDy=0;" parent="1" source="0fySJKZ7ysAFsFfrDqM2-2" target="bLK67qYPY1fCgwlhXt4D-41" edge="1">
          <mxGeometry relative="1" as="geometry">
            <mxPoint x="830" y="455" as="sourcePoint" />
            <mxPoint x="600" y="550" as="targetPoint" />
          </mxGeometry>
        </mxCell>
        <mxCell id="MomumSvb6nAdSk_d3Thd-7" value="N" style="edgeLabel;html=1;align=center;verticalAlign=middle;resizable=0;points=[];fontSize=12;" parent="MomumSvb6nAdSk_d3Thd-6" vertex="1" connectable="0">
          <mxGeometry x="0.4311" y="2" relative="1" as="geometry">
            <mxPoint x="-35" y="4" as="offset" />
          </mxGeometry>
        </mxCell>
        <mxCell id="MomumSvb6nAdSk_d3Thd-8" value="" style="shape=link;html=1;rounded=0;exitX=0;exitY=0.5;exitDx=0;exitDy=0;entryX=1;entryY=0.5;entryDx=0;entryDy=0;" parent="1" source="bLK67qYPY1fCgwlhXt4D-70" target="yTcXm12r717XAI1YzuX1-4" edge="1">
          <mxGeometry relative="1" as="geometry">
            <mxPoint x="650" y="490" as="sourcePoint" />
            <mxPoint x="530" y="580" as="targetPoint" />
          </mxGeometry>
        </mxCell>
        <mxCell id="MomumSvb6nAdSk_d3Thd-9" value="1" style="edgeLabel;html=1;align=center;verticalAlign=middle;resizable=0;points=[];fontSize=12;" parent="MomumSvb6nAdSk_d3Thd-8" vertex="1" connectable="0">
          <mxGeometry x="0.4311" y="2" relative="1" as="geometry">
            <mxPoint x="-12" y="-12" as="offset" />
          </mxGeometry>
        </mxCell>
        <mxCell id="MomumSvb6nAdSk_d3Thd-10" value="" style="shape=link;html=1;rounded=0;exitX=0.5;exitY=0;exitDx=0;exitDy=0;entryX=0.5;entryY=1;entryDx=0;entryDy=0;" parent="1" source="bLK67qYPY1fCgwlhXt4D-79" target="yTcXm12r717XAI1YzuX1-4" edge="1">
          <mxGeometry relative="1" as="geometry">
            <mxPoint x="630" y="360" as="sourcePoint" />
            <mxPoint x="550" y="360" as="targetPoint" />
          </mxGeometry>
        </mxCell>
        <mxCell id="MomumSvb6nAdSk_d3Thd-11" value="1" style="edgeLabel;html=1;align=center;verticalAlign=middle;resizable=0;points=[];fontSize=12;" parent="MomumSvb6nAdSk_d3Thd-10" vertex="1" connectable="0">
          <mxGeometry x="0.4311" y="2" relative="1" as="geometry">
            <mxPoint x="-12" y="-12" as="offset" />
          </mxGeometry>
        </mxCell>
        <mxCell id="MomumSvb6nAdSk_d3Thd-12" value="" style="shape=link;html=1;rounded=0;exitX=1;exitY=0.5;exitDx=0;exitDy=0;entryX=0;entryY=0.5;entryDx=0;entryDy=0;" parent="1" source="bLK67qYPY1fCgwlhXt4D-2" target="yTcXm12r717XAI1YzuX1-4" edge="1">
          <mxGeometry relative="1" as="geometry">
            <mxPoint x="650" y="490" as="sourcePoint" />
            <mxPoint x="530" y="580" as="targetPoint" />
          </mxGeometry>
        </mxCell>
        <mxCell id="MomumSvb6nAdSk_d3Thd-13" value="N" style="edgeLabel;html=1;align=center;verticalAlign=middle;resizable=0;points=[];fontSize=12;" parent="MomumSvb6nAdSk_d3Thd-12" vertex="1" connectable="0">
          <mxGeometry x="0.4311" y="2" relative="1" as="geometry">
            <mxPoint x="13" y="-8" as="offset" />
          </mxGeometry>
        </mxCell>
      </root>
    </mxGraphModel>
  </diagram>
</mxfile>
